<?xml version="1.0" encoding="iso-8859-1"?>
<!-- Generator: Adobe Illustrator 21.1.0, SVG Export Plug-In . SVG Version: 6.00 Build 0)  -->
<svg version="1.1" id="Layer_1" xmlns="http://www.w3.org/2000/svg" xmlns:xlink="http://www.w3.org/1999/xlink" x="0px" y="0px"
	 viewBox="0 0 100.353 100.353" style="enable-background:new 0 0 100.353 100.353;" xml:space="preserve">
<g>
	<path d="M74.86,11.059H27.526c-6.337,0-11.498,5.093-11.628,11.4c-0.003,0.04-0.012,0.078-0.012,0.118
		c0,0.013,0.003,0.025,0.004,0.038c0,0.029-0.004,0.057-0.004,0.086v55.563c0,0.828,0.671,1.5,1.5,1.5h6.561v6.902
		c0,0.828,0.671,1.5,1.5,1.5s1.5-0.672,1.5-1.5v-6.902h47.279v6.902c0,0.828,0.672,1.5,1.5,1.5s1.5-0.672,1.5-1.5v-6.902H85
		c0.828,0,1.5-0.672,1.5-1.5V22.7C86.5,16.282,81.278,11.059,74.86,11.059z M60.604,51.059c-0.747-4.436-4.602-7.829-9.245-7.829
		c-4.653,0-8.516,3.406-9.252,7.854l-23.22,0.031V24.073L83.5,23.986v27.042L60.604,51.059z M57.544,51.064l-12.38,0.017
		c0.692-2.781,3.202-4.85,6.194-4.85C54.342,46.23,56.847,48.291,57.544,51.064z M27.526,14.059H74.86
		c4.177,0,7.67,2.981,8.468,6.927l-64.284,0.086C19.809,17.084,23.318,14.059,27.526,14.059z M18.886,76.764V54.115l24.259-0.033
		c0.105,0.023,0.213,0.038,0.325,0.038c0.113,0,0.222-0.015,0.328-0.038l15.054-0.02c0.126,0.034,0.256,0.059,0.393,0.059
		c0.138,0,0.269-0.025,0.396-0.06l23.86-0.032v22.735H18.886z"/>
	<path d="M29.975,58.965c-3.761,0-6.821,3.06-6.821,6.82c0,3.762,3.06,6.821,6.821,6.821s6.821-3.06,6.821-6.821
		C36.796,62.025,33.736,58.965,29.975,58.965z M29.975,69.607c-2.107,0-3.821-1.714-3.821-3.821c0-2.106,1.714-3.82,3.821-3.82
		s3.821,1.714,3.821,3.82C33.796,67.893,32.082,69.607,29.975,69.607z"/>
	<path d="M72.202,58.965c-3.761,0-6.82,3.06-6.82,6.82c0,3.762,3.06,6.821,6.82,6.821c3.762,0,6.821-3.06,6.821-6.821
		C79.023,62.025,75.964,58.965,72.202,58.965z M72.202,69.607c-2.106,0-3.82-1.714-3.82-3.821c0-2.106,1.714-3.82,3.82-3.82
		c2.107,0,3.821,1.714,3.821,3.82C76.023,67.893,74.31,69.607,72.202,69.607z"/>
</g>
</svg>
